<svg version="1.1" id="Layer_1" xmlns="http://www.w3.org/2000/svg" xmlns:xlink="http://www.w3.org/1999/xlink" x="0px" y="0px"
	 width="100%" viewBox="0 0 1024 880" enable-background="new 0 0 1024 880" xml:space="preserve">
<path fill="#000000" opacity="1.000000" stroke="none" 
	d="
M490.050323,726.067383 
	C477.118805,737.118286 464.894958,748.512146 451.685211,758.617310 
	C435.324951,771.132568 416.163940,774.625549 395.880676,772.783508 
	C377.974030,771.157288 361.647766,764.486084 345.658295,756.907654 
	C286.380890,728.812256 229.463242,696.538452 175.477264,659.259216 
	C142.131348,636.232727 110.204048,611.337158 80.850349,583.288269 
	C70.388138,573.291138 60.851521,562.824097 58.464264,547.631592 
	C55.251888,527.187866 60.480820,509.747711 76.944595,496.842926 
	C119.820808,463.235413 162.854782,429.826324 206.038406,396.614532 
	C264.942261,351.312561 323.804260,305.953369 383.359863,261.505493 
	C400.451080,248.749893 417.478973,235.909500 434.557983,223.137527 
	C449.449738,212.001175 461.679443,198.017975 474.836884,185.069611 
	C503.880890,156.487122 537.040344,133.834961 573.268982,115.643898 
	C590.714172,106.884346 609.444763,107.107315 627.877502,112.453194 
	C649.992188,118.866905 670.905762,128.538544 692.005066,137.630630 
	C729.815063,153.923737 766.900757,171.744202 802.826355,191.863602 
	C843.877930,214.853699 882.964172,240.889771 920.508057,269.244324 
	C927.675293,274.657318 934.269287,280.821808 936.706604,289.637695 
	C938.792053,297.180939 940.067505,304.981415 941.874634,312.638611 
	C942.892944,316.953156 942.507812,321.587402 940.471375,325.852386 
	C938.978760,328.978394 940.580017,332.303589 939.841919,335.664337 
	C933.672791,363.754425 919.377441,387.865997 903.582275,411.317871 
	C893.807373,425.831055 880.967590,436.970245 866.380127,446.347809 
	C817.189026,477.970154 768.340027,510.112061 720.118347,543.197449 
	C693.745544,561.292053 666.854431,578.700256 641.573364,598.289124 
	C622.368835,613.169556 604.263000,629.468689 585.685303,645.156799 
	C560.743896,666.218933 535.815918,687.297058 510.888550,708.375854 
	C504.021027,714.183105 497.176025,720.016968 490.050323,726.067383 
M782.145569,336.757538 
	C781.282837,342.226685 774.311890,342.539948 772.828125,347.468323 
	C776.963074,351.405823 777.702332,351.529541 781.581421,348.189117 
	C786.225952,344.189545 790.874390,340.176056 795.249756,335.891449 
	C797.038086,334.140137 801.426880,332.483856 798.941833,329.468384 
	C796.046448,325.954956 793.562134,330.311646 791.053589,331.707825 
	C788.131409,333.334198 786.172668,336.974426 781.802673,335.339508 
	C780.723511,332.227264 782.467163,330.385681 784.630127,328.547333 
	C786.142151,327.262207 788.983459,325.892914 786.830750,323.441711 
	C784.919922,321.265808 782.316223,319.130005 779.003906,321.464539 
	C777.237000,322.709808 775.626709,324.179291 773.845886,325.402161 
	C771.536865,326.987640 768.492126,328.302551 766.643188,325.821686 
	C764.651794,323.149628 768.440369,322.258545 769.722351,320.603333 
	C769.920471,320.347565 770.235901,320.182617 770.497375,319.976044 
	C776.524109,315.214294 776.408081,313.660736 769.502380,309.869843 
	C750.997437,299.711548 733.165955,288.384338 714.301270,278.824097 
	C701.257141,272.213562 688.850159,264.353424 676.085083,257.182343 
	C666.227234,251.644440 656.198242,246.410934 646.345825,240.863647 
	C624.466492,228.544876 602.691956,216.039230 580.774414,203.789322 
	C576.148926,201.204102 570.949768,200.754547 566.766052,204.685303 
	C561.917603,209.240601 556.383667,212.964340 551.869751,217.948471 
	C544.901123,225.642990 544.737915,225.426147 553.681274,230.348602 
	C591.462891,251.143845 629.211853,271.998535 667.005066,292.772766 
	C692.688965,306.890656 718.448853,320.870544 744.111938,335.026062 
	C747.339905,336.806580 749.702820,336.910217 752.492676,334.163055 
	C755.078918,331.616333 758.220154,329.601349 761.252319,327.552521 
	C762.862061,326.464752 764.817383,326.164215 766.053528,328.192627 
	C767.085327,329.885590 766.436218,331.380371 764.873535,332.511841 
	C764.199402,332.999939 763.501831,333.477356 762.915344,334.060638 
	C761.448425,335.519714 758.921631,336.930176 761.326050,339.293762 
	C763.273682,341.208313 765.518738,343.475739 768.690674,341.118622 
	C769.760071,340.323944 770.904480,339.603241 771.860291,338.687622 
	C774.761719,335.908112 778.124756,335.071411 782.145569,336.757538 
M380.996796,473.995728 
	C380.996796,473.995728 380.968658,473.962250 381.336731,474.574921 
	C386.732758,485.177734 386.427765,492.043243 379.961792,497.622192 
	C374.922821,501.969910 369.846954,506.338684 364.383698,510.113678 
	C358.420563,514.234192 351.741394,516.549500 344.207489,515.685547 
	C336.476593,514.798889 330.153931,510.816925 323.707642,506.999481 
	C315.816284,502.326294 307.644897,505.252686 304.750031,513.734924 
	C303.371979,517.772705 300.224579,520.210693 296.988617,519.746948 
	C301.628204,514.267029 301.950531,512.085510 298.590607,508.905975 
	C294.162903,504.715973 287.704376,503.925385 284.319946,507.267944 
	C286.534790,507.328857 288.661224,506.315155 290.769928,507.207764 
	C293.288513,508.273987 296.046692,509.605804 295.902985,512.631653 
	C295.760345,515.634888 292.898621,516.127014 290.327667,516.579163 
	C285.833496,517.369507 281.380951,517.088806 276.885254,516.619751 
	C272.941681,516.208252 268.961334,516.088928 265.573975,519.360901 
	C267.222321,522.285950 270.194885,523.369080 272.377197,525.314880 
	C274.633087,527.326233 278.012573,528.226929 278.947174,531.681396 
	C276.797302,534.224915 272.095703,535.727234 275.689423,540.152893 
	C281.401276,547.187195 290.262360,548.218872 297.449463,542.692566 
	C304.181976,537.515808 310.868958,532.279846 317.596008,527.095947 
	C321.471466,524.109558 325.635376,521.289490 322.185333,515.086853 
	C330.957184,517.601624 335.798798,524.057495 334.027374,530.018677 
	C332.138336,530.480042 332.351685,526.895630 329.573364,528.235413 
	C331.371735,537.130737 326.281738,542.774536 319.422028,547.497864 
	C318.062042,548.434326 317.076569,549.953186 315.667664,550.772156 
	C312.727295,552.481506 312.595001,555.143799 313.424377,557.721985 
	C313.999084,559.508423 313.791321,563.534546 317.949097,560.968140 
	C318.578430,560.579712 318.969116,561.631409 319.100250,562.276489 
	C319.623322,564.848633 321.508026,564.401489 322.976410,563.715149 
	C327.585907,561.560608 332.751495,560.574829 336.481201,556.540222 
	C338.912445,553.910156 342.421448,552.028809 345.969147,553.521240 
	C349.895355,555.172974 353.382355,556.107605 357.174866,553.561829 
	C358.043732,552.978577 359.204102,553.148254 359.936615,553.972229 
	C361.995331,556.288269 364.373718,556.357239 367.195770,555.598450 
	C369.477783,554.984741 371.411804,556.163635 372.862488,557.976868 
	C373.672028,558.988770 373.860931,560.161194 372.978180,561.179382 
	C371.417969,562.978821 369.389832,563.455139 367.089020,562.942261 
	C365.234222,562.528809 363.303497,561.278809 361.677795,563.209045 
	C361.404999,564.292725 361.960358,564.893250 362.487366,565.555542 
	C365.354248,569.158447 364.733826,571.318787 360.455536,572.752258 
	C355.941406,574.264771 351.863007,571.934204 351.039948,567.077026 
	C350.764771,565.453247 350.226227,564.504211 348.693146,564.505798 
	C347.004639,564.507568 346.563080,565.958618 346.389313,567.296204 
	C345.994995,570.330872 347.903259,572.192749 349.912170,574.057495 
	C351.192657,575.245972 353.417450,575.285706 354.025238,577.359985 
	C352.424774,579.056396 348.785645,577.167358 348.449646,581.173889 
	C348.132172,584.958801 350.172302,586.594604 352.832306,588.229797 
	C355.668976,589.973633 358.391449,591.904724 361.243195,593.622131 
	C365.459839,596.161560 370.397980,596.729980 373.973206,593.656921 
	C384.419464,584.677795 397.159821,578.097290 404.397583,565.569214 
	C411.419495,567.790405 415.076111,572.632385 413.529663,578.241577 
	C411.040405,575.217285 409.229614,571.507507 404.623047,570.791382 
	C407.692200,578.357849 407.054047,581.056274 405.226196,589.069153 
	C404.126770,593.888794 400.267883,595.111084 397.610565,597.648315 
	C385.300354,609.402100 371.786133,617.470520 354.157074,608.456543 
	C351.521942,607.109131 348.422791,607.228210 347.016632,609.807556 
	C345.455322,612.671387 348.906982,613.471863 350.540710,614.857178 
	C353.828552,617.645081 357.132782,620.371277 355.996796,625.924866 
	C352.671906,624.393066 352.135254,619.536194 346.980408,619.967896 
	C353.645935,625.155945 348.772522,630.719543 348.674316,636.010681 
	C348.639008,637.912476 348.101044,639.750854 346.171539,641.135925 
	C342.939026,643.456360 340.005798,646.201599 337.001862,648.831177 
	C321.702789,662.223389 309.413513,667.519470 289.115204,653.534668 
	C282.239349,648.797363 273.579956,648.789978 266.627655,644.355652 
	C265.578705,643.686646 263.653625,644.045227 262.235657,644.371216 
	C259.093231,645.093567 257.121307,646.587585 258.745544,650.360229 
	C259.657623,652.478882 260.518341,654.829651 260.538147,657.083435 
	C260.600677,664.197510 264.647461,668.479614 270.311035,671.621887 
	C273.113159,673.176514 275.555267,675.101746 278.000732,677.123779 
	C285.207886,683.082764 291.263947,690.216797 300.425140,694.075073 
	C306.635895,696.690796 313.125183,698.890625 319.108734,702.026917 
	C333.524170,709.582703 347.662598,717.668335 362.101257,725.177734 
	C368.562256,728.538025 374.923462,732.752319 382.288177,733.562622 
	C391.642273,734.591797 400.968475,736.755737 410.522980,735.201843 
	C423.055481,733.163574 435.317017,730.794861 445.044891,721.496338 
	C454.453888,712.502563 465.690399,706.563965 478.256683,703.142151 
	C480.529480,702.523254 482.419952,701.325623 484.193176,699.653687 
	C486.672882,697.315552 489.551575,695.377075 493.346436,696.103394 
	C493.829803,699.142212 491.989502,701.486267 492.018036,705.083435 
	C498.861603,703.750793 504.090790,700.278748 508.503021,695.625916 
	C509.971008,694.077820 511.785522,691.663696 510.804077,689.363281 
	C509.726196,686.836731 506.928650,688.505554 504.922821,688.125244 
	C504.484375,688.042053 504.102264,687.661987 503.385986,687.234924 
	C505.237946,683.161438 506.409821,678.912659 509.185699,675.262451 
	C513.801086,669.193176 517.806091,662.711426 524.415344,658.323120 
	C527.057800,656.568542 528.893982,653.518372 530.904114,650.909180 
	C535.709412,644.671753 540.056335,638.311218 547.135071,633.923828 
	C557.998840,627.190430 567.340149,618.059998 578.669861,612.035095 
	C589.851440,606.088867 598.269531,596.922058 607.635315,588.876526 
	C612.512817,584.686523 616.575562,579.519958 620.822754,574.634888 
	C623.310303,571.773743 627.531250,571.129639 629.585571,568.198547 
	C635.548035,559.691528 643.568420,553.353699 650.841980,546.162048 
	C663.889343,533.261658 680.397034,525.379944 694.413757,513.945435 
	C701.647217,508.044525 707.646667,501.389679 712.746033,493.808777 
	C714.273254,491.538300 716.076111,488.973816 716.136780,485.217957 
	C707.425659,487.354767 699.715698,491.041840 691.331970,492.198090 
	C689.872864,492.399323 689.531982,493.977814 688.823608,495.101471 
	C685.098816,501.009857 678.258728,501.439087 674.006470,495.974854 
	C671.472290,492.718475 668.243103,491.152527 663.950745,490.882538 
	C662.391724,494.261200 660.825806,497.638550 657.967285,500.008881 
	C651.435242,505.425476 644.893127,510.838287 638.182617,516.029480 
	C627.094727,524.606873 615.414917,524.252625 603.660156,517.560181 
	C598.025635,514.352234 592.634460,510.710999 587.186584,507.183228 
	C583.519897,504.808868 579.570984,505.512238 575.696472,506.053345 
	C572.727356,506.468018 572.622742,508.202576 574.482849,510.215637 
	C575.880005,511.727661 578.006897,512.681213 578.418274,515.436462 
	C575.203918,516.611572 571.927490,515.592651 568.959961,516.370544 
	C564.154419,517.630249 561.958496,516.371460 562.660583,511.121460 
	C563.002625,508.563934 561.919556,506.664734 559.112061,505.881989 
	C557.094421,509.193817 559.108826,513.361206 556.588867,516.402222 
	C554.257935,519.215027 549.828918,519.010620 546.605042,515.724548 
	C550.259277,512.590515 547.301331,505.668854 554.012634,503.895325 
	C559.121643,502.545166 563.913086,501.414337 569.500671,505.751648 
	C568.579834,501.429749 572.696655,498.080627 568.025635,495.729645 
	C563.454468,493.428894 562.376282,489.963989 563.736145,485.279053 
	C564.045105,484.214844 564.930176,483.036896 564.137878,481.642181 
	C562.470093,483.135712 563.532898,485.874664 561.261963,486.789246 
	C558.452942,481.203644 560.304688,476.409180 566.413452,473.712372 
	C567.439636,474.937073 568.369629,476.341736 569.585449,477.425781 
	C571.230164,478.892181 573.053833,479.024506 573.983765,476.655273 
	C575.926697,471.705505 578.472595,466.804596 579.276672,461.650482 
	C580.021851,456.874176 582.587097,455.013458 586.438171,454.041382 
	C591.769653,452.695618 592.962646,450.871735 591.454346,445.249664 
	C590.613953,442.117401 591.043884,439.476318 593.496704,437.038147 
	C596.746826,433.807465 595.710999,430.675476 591.200256,429.657166 
	C588.948792,429.148895 585.673279,429.334656 584.803711,427.554321 
	C581.478394,420.745850 573.836487,420.453674 568.805847,416.240234 
	C565.191345,413.212921 559.165649,415.323730 559.221069,418.949188 
	C559.292786,423.639526 556.802063,425.867371 553.275208,427.826965 
	C550.113342,429.583771 546.878052,431.318298 545.665771,435.056000 
	C532.135681,429.502167 527.456604,431.268799 526.111511,442.255890 
	C523.951660,442.676819 521.027100,439.894897 519.617676,443.531708 
	C518.276489,446.992523 521.262878,448.205078 523.275024,449.771240 
	C525.110291,451.199829 527.092163,452.449432 529.063660,453.691833 
	C535.809875,457.943115 540.784546,457.829437 547.004517,453.014130 
	C552.665955,448.631287 558.221069,444.106415 563.725037,439.526398 
	C567.259399,436.585327 571.523926,433.854950 568.541382,427.588409 
	C571.729431,429.067871 574.309204,430.279297 576.442932,432.033325 
	C583.464478,437.805359 583.610535,444.410828 576.447449,451.016571 
	C570.579346,456.428070 564.149597,461.228607 557.995422,466.332123 
	C548.153564,474.493713 534.951111,475.440247 523.977661,468.745880 
	C513.455933,462.327087 503.009003,455.779816 492.365906,449.568848 
	C487.968262,447.002502 484.418518,444.185272 483.969269,438.724884 
	C483.903717,437.928589 483.771820,436.672485 483.288940,436.447144 
	C477.980347,433.969940 481.579681,430.971893 483.011871,428.541351 
	C484.420898,426.150177 486.626953,424.230957 488.468170,422.091675 
	C491.434418,418.645203 490.775848,415.611542 487.444214,412.664917 
	C483.893616,415.152069 480.459229,417.496643 477.089020,419.930115 
	C467.132904,427.118835 456.549805,426.987152 445.862183,422.166473 
	C439.960266,419.504364 434.444366,416.031372 429.126495,412.246582 
	C424.833832,409.191406 420.354797,406.228607 414.742737,406.101929 
	C413.369507,406.070923 412.875549,404.879883 412.055664,404.086639 
	C406.770782,398.973419 401.852081,393.437378 395.426331,389.631805 
	C393.661072,388.586334 391.893402,387.530701 389.886475,388.951569 
	C387.721527,390.484253 388.581543,392.527496 389.242310,394.387390 
	C391.023621,399.401367 392.182373,404.477966 391.084930,409.871704 
	C401.791199,408.525757 410.482849,411.391052 412.259369,417.001587 
	C410.323059,416.008850 408.641907,414.962555 406.828827,414.253479 
	C402.248047,412.461975 396.657135,413.665924 394.112335,417.226227 
	C390.540955,422.222687 383.806488,420.861176 379.816528,425.021149 
	C381.227020,421.893646 383.521729,419.817993 386.004608,417.899902 
	C388.078339,416.298035 390.178131,414.328125 388.114136,411.684265 
	C386.119324,409.129059 383.973175,411.110687 382.026306,412.405273 
	C380.173676,413.637238 378.721771,415.823151 375.990936,415.172913 
	C374.400208,412.975189 375.145996,411.057617 376.415344,409.143555 
	C378.470947,406.043945 379.911926,402.739136 379.975403,398.917816 
	C380.006561,397.042267 380.662781,395.289093 382.005524,393.930206 
	C383.640045,392.276001 384.156647,390.510742 382.574921,388.627716 
	C380.005890,385.569397 376.478546,385.516113 372.934387,385.940399 
	C370.735931,386.203583 369.982086,387.656464 370.133148,389.857025 
	C370.366547,393.256653 368.672943,395.847870 366.429504,398.270111 
	C359.159668,406.119263 349.952972,411.674011 342.176025,418.914429 
	C341.339111,419.693604 340.175537,420.295105 339.687103,421.247528 
	C336.384155,427.688507 334.281525,428.784393 327.318817,427.983826 
	C323.872864,427.587616 320.372528,427.563660 316.896729,427.562561 
	C314.484619,427.561798 313.446869,428.673370 313.734009,431.395020 
	C314.626953,439.858917 315.501404,440.595306 323.978088,438.974701 
	C324.779846,438.821411 325.629028,438.913483 326.456268,438.896332 
	C335.249817,438.714020 347.397583,448.147064 351.605652,458.520630 
	C343.794586,455.894897 339.373901,461.671295 333.843140,464.649170 
	C334.955627,466.957153 336.762054,466.654327 339.014435,468.055237 
	C332.911560,467.598663 335.018341,473.191772 332.594696,475.069183 
	C329.040955,474.871704 331.014069,470.043793 327.351654,469.984558 
	C323.222290,475.776855 330.071625,477.766235 332.065155,481.815430 
	C330.881104,481.750366 330.233032,481.795837 329.621918,481.666595 
	C327.458496,481.209137 325.349701,480.598022 324.098053,483.352783 
	C322.780792,486.251923 324.473358,487.640839 326.577972,488.984375 
	C329.946472,491.134735 333.256592,493.376617 336.626343,495.524994 
	C344.683716,500.661987 349.571655,500.425415 356.976624,494.295654 
	C365.051788,487.611145 373.013885,480.790131 380.996796,473.995728 
M223.428482,593.321594 
	C228.055252,595.657349 233.198090,596.436462 237.054642,592.931885 
	C245.379974,585.366394 256.250549,580.409668 261.294586,569.312134 
	C262.339722,567.012756 264.683777,565.516602 261.874664,563.151428 
	C259.129639,560.840210 256.322418,560.085144 253.574524,563.171692 
	C252.380127,564.513245 250.839294,564.879578 249.129517,565.097534 
	C245.337341,565.580872 241.548080,566.128052 237.789856,566.823364 
	C234.959549,567.346924 232.888107,567.955139 232.388168,563.621277 
	C231.905060,559.433105 227.928040,559.837646 224.763992,560.295410 
	C222.461548,560.628601 220.326096,562.167603 220.627411,564.524780 
	C221.063034,567.932617 224.041138,568.624634 227.065887,568.614685 
	C228.447830,568.610168 230.044708,567.576477 231.004364,569.494080 
	C230.641464,571.630554 228.913818,571.761047 227.317017,572.239380 
	C224.621216,573.046997 221.891403,573.840698 219.336853,574.996155 
	C215.726639,576.629089 214.220901,580.281738 213.368973,583.615906 
	C212.548462,586.827026 216.037109,588.167480 218.311432,589.761108 
	C219.804779,590.807556 221.317749,591.825928 223.428482,593.321594 
M298.464325,624.112976 
	C295.019470,622.193726 291.916901,621.687317 289.596344,625.853271 
	C287.133545,630.274536 287.574524,633.045715 291.630798,636.094482 
	C294.687805,638.392151 297.802399,640.619141 300.965515,642.768433 
	C306.503601,646.531494 311.791168,646.382141 317.017700,642.085815 
	C324.731384,635.745117 332.301727,629.230286 339.955200,622.815918 
	C341.801300,621.268738 343.298340,619.490906 343.588104,617.048828 
	C343.894958,614.462463 342.255920,611.847046 340.095367,613.198059 
	C335.029755,616.365662 328.814209,615.664246 323.862244,619.281799 
	C317.794525,623.714417 311.211823,625.328430 304.642578,619.278198 
	C302.122620,616.957275 298.778351,615.508484 295.740570,613.783997 
	C294.563782,613.115967 293.287964,611.731140 291.241119,614.012146 
	C295.352509,618.955811 302.424927,620.562988 306.630920,626.419495 
	C303.357086,626.859985 301.291809,625.464294 298.464325,624.112976 
M456.525848,409.160645 
	C460.423798,410.324768 464.154755,410.004791 467.420258,407.480835 
	C472.942352,403.212708 478.352142,398.799469 483.829285,394.472717 
	C485.914551,392.825439 485.840027,391.126343 483.901337,389.541351 
	C481.769012,387.797974 479.775513,385.418488 476.483429,387.506958 
	C474.757477,388.601898 473.005798,387.903931 471.242981,387.205627 
	C469.246674,386.414795 466.919434,384.977753 465.125458,385.415894 
	C457.639404,387.244324 450.338135,386.275635 442.926270,385.229218 
	C439.303925,384.717804 437.562500,387.563843 436.563965,390.488281 
	C435.588837,393.344238 434.869110,396.516479 438.230713,398.477112 
	C444.109314,401.905823 449.502594,406.151917 456.525848,409.160645 
M312.378357,399.435913 
	C316.061188,405.640228 325.947144,409.777161 331.594818,406.638550 
	C339.989868,401.973145 346.330048,394.669922 353.554199,388.621216 
	C351.227448,384.667908 347.941315,384.900604 344.818542,385.034973 
	C341.839722,385.163177 338.826538,385.855621 335.906036,385.032532 
	C324.575684,381.839233 319.071350,388.616608 312.378357,399.435913 
M248.997589,606.843750 
	C246.082062,606.455872 244.199432,608.824280 241.707138,609.586487 
	C239.545135,610.247620 237.992371,612.023682 235.423080,612.220581 
	C229.209167,612.696655 223.431824,611.883789 217.730759,609.193359 
	C215.076218,607.940674 211.827103,608.684265 209.381271,610.466797 
	C207.639877,611.735962 206.085236,614.126831 206.931396,616.070923 
	C208.019028,618.569763 210.199280,620.612549 213.520554,620.546326 
	C215.880737,620.499268 217.596878,621.804443 218.748642,623.815063 
	C219.748001,625.559509 220.857773,627.163086 223.098831,627.989258 
	C225.277313,626.096558 227.830032,624.470276 228.889847,621.514038 
	C229.657516,619.372681 229.696823,616.629089 232.798065,616.491699 
	C235.649399,616.365479 237.152191,618.366821 238.582123,620.554626 
	C241.486191,624.998108 245.172729,628.664368 249.846695,631.346802 
	C251.331390,629.996765 251.279938,628.605896 251.146301,627.055664 
	C250.872742,623.882385 251.215912,620.648132 252.596268,617.830505 
	C254.871689,613.185791 253.146500,609.988586 248.997589,606.843750 
M608.143066,500.425659 
	C617.734253,506.553711 622.998657,506.218506 629.078979,498.937256 
	C627.185303,498.192200 627.287292,495.567078 625.754272,494.908813 
	C620.584778,492.689026 615.779785,490.190063 611.456360,486.367157 
	C608.738586,483.963989 601.776184,487.167511 602.400513,490.014221 
	C603.200073,493.660156 603.164429,498.093597 608.143066,500.425659 
M163.567642,511.743927 
	C164.572479,508.299225 163.414658,506.235413 160.022324,504.738525 
	C152.969833,501.626526 144.792480,503.811523 137.907349,511.300781 
	C135.933609,513.447693 133.559662,515.691345 134.909637,519.151794 
	C136.245728,522.576660 139.256287,523.554138 142.507996,523.820190 
	C151.893433,524.588135 157.982162,519.221069 163.567642,511.743927 
M678.450378,486.049744 
	C680.109558,491.110535 684.456787,490.428802 688.349060,490.641907 
	C692.131531,490.848999 695.075134,487.652527 695.195435,483.311462 
	C695.285095,480.077148 691.791809,476.295593 688.691223,476.270355 
	C684.597839,476.237061 679.068115,481.148834 678.450378,486.049744 
M267.808624,449.123993 
	C271.914215,452.968292 275.429077,449.713898 278.268341,447.565186 
	C284.468079,442.873322 290.145569,437.492950 296.057556,432.418518 
	C298.855225,430.017181 298.372681,428.142242 295.484192,426.491730 
	C293.660828,427.495972 291.702240,428.030548 290.574585,429.302032 
	C287.677399,432.568634 281.542572,433.755096 283.332245,440.254791 
	C283.656982,441.434235 282.474548,441.994720 281.007263,442.008820 
	C275.647339,442.060181 271.125458,443.928345 267.808624,449.123993 
M259.621368,433.119537 
	C262.298187,431.021973 265.554260,430.708832 268.532349,430.544647 
	C266.858368,422.440460 277.122925,422.741730 277.956024,416.639252 
	C275.032410,415.574829 272.493683,415.988220 269.728394,417.278137 
	C271.015320,422.134949 266.610077,423.041656 263.882507,424.916046 
	C261.828827,426.327301 259.757812,424.623718 258.061523,423.278564 
	C256.066254,421.696259 258.439117,420.688141 258.953430,419.455994 
	C257.381836,419.455994 256.033508,419.302917 254.737793,419.498474 
	C253.407364,419.699249 252.092529,420.309326 251.903091,421.874359 
	C251.737518,423.242218 252.805786,424.192261 253.863083,424.466125 
	C258.506561,425.668854 259.670563,428.800385 259.621368,433.119537 
M462.415955,377.644836 
	C467.065979,380.005585 471.716034,382.366302 476.595825,384.843689 
	C476.595825,384.130829 476.660614,383.906525 476.585785,383.840576 
	C475.847961,383.190063 475.062378,382.592804 474.336334,381.930023 
	C466.222382,374.523041 457.560852,370.503540 446.879395,376.991394 
	C445.271759,377.967896 443.220947,379.691803 441.395874,378.751892 
	C438.774567,377.401855 437.452576,378.015656 436.273102,380.360016 
	C435.702240,381.494690 435.346954,382.574493 436.496704,383.482086 
	C438.645447,385.178162 440.115540,382.904846 441.920044,382.507355 
	C448.578705,381.040710 454.181061,375.558716 462.415955,377.644836 
M309.317078,386.444855 
	C316.392426,384.285126 322.811035,380.413025 330.207642,378.920197 
	C332.936554,378.369415 336.178833,378.713593 338.704926,376.766357 
	C335.572540,372.972809 333.490997,371.812958 326.899109,370.113312 
	C327.127167,373.023804 332.036041,372.132233 331.430237,375.887360 
	C325.204010,376.983215 319.131317,378.650085 313.475464,381.514954 
	C311.522339,382.504272 308.896545,383.007324 309.317078,386.444855 
M209.528839,471.016022 
	C212.336227,467.978333 216.729263,466.383636 218.377136,461.682037 
	C215.643784,461.224274 212.223801,460.307495 211.581650,462.409271 
	C209.942322,467.774872 205.103928,469.656708 201.814163,473.168549 
	C200.834442,474.214417 199.295898,474.959137 200.034485,477.413300 
	C204.330948,477.440948 206.107651,473.505219 209.528839,471.016022 
M523.967529,428.434753 
	C521.549805,429.388367 518.527039,429.024414 517.053650,432.376617 
	C528.257629,429.856720 539.461609,427.336823 550.665588,424.816925 
	C550.562256,424.332916 550.458984,423.848877 550.355652,423.364868 
	C541.494507,423.088684 533.349915,426.947998 523.967529,428.434753 
M536.618591,419.070038 
	C535.870667,413.701416 530.701111,411.340698 524.975525,413.798065 
	C523.075745,414.613434 521.401428,415.780548 521.387634,418.112457 
	C521.375427,420.170288 522.798279,421.420410 524.418579,422.358704 
	C528.541443,424.746338 532.284180,423.899292 536.618591,419.070038 
M603.006958,471.759460 
	C608.390808,475.064240 613.771423,478.374268 619.160583,481.670349 
	C620.684814,482.602570 622.235657,483.574127 624.078369,481.576904 
	C618.399048,476.438568 611.809570,473.226379 605.478271,469.648773 
	C604.229614,468.943207 601.999573,467.974396 603.006958,471.759460 
M396.721436,340.119843 
	C395.403076,337.375458 395.131836,336.926575 393.876678,337.568665 
	C388.833130,340.148712 383.651276,342.656281 380.833801,348.487823 
	C385.011566,345.428284 389.435669,344.982452 393.975647,347.101227 
	C394.449860,343.882080 390.096191,343.643402 391.755798,340.878754 
	C392.885223,338.997345 394.626465,339.769958 396.721436,340.119843 
M316.499054,615.876343 
	C318.075073,616.562561 319.552887,618.794739 321.838501,615.870117 
	C316.022430,611.447083 310.359863,607.320129 303.156891,605.817932 
	C306.610718,610.140747 311.389557,612.641479 316.499054,615.876343 
M390.485413,356.702881 
	C386.955780,357.591156 381.848724,355.527557 380.907166,361.620575 
	C385.841339,363.221130 389.604767,361.484070 394.289093,355.212097 
	C392.844757,355.798065 392.000916,356.140381 390.485413,356.702881 
M458.975006,282.539185 
	C456.730896,280.294128 460.781647,277.969879 458.682068,275.380341 
	C453.140198,276.445465 458.858154,281.542023 455.952667,283.498016 
	C455.272095,283.956207 455.280212,285.375275 456.213806,286.141479 
	C457.098846,286.867767 458.127472,286.727692 458.947357,286.077362 
	C461.155029,284.326172 463.920349,283.182159 465.748016,280.472717 
	C462.808807,279.952484 461.861938,282.941010 458.975006,282.539185 
M818.557556,390.859863 
	C822.788879,386.911621 822.788879,386.911621 820.611206,383.731964 
	C818.392090,384.357758 817.019836,386.065796 815.969971,387.894196 
	C814.828979,389.881226 815.133362,391.444641 818.557556,390.859863 
M435.814026,291.172089 
	C434.799164,292.398102 432.966858,293.038422 432.996918,295.064331 
	C433.940582,296.205444 434.875732,297.309967 436.821686,297.259552 
	C435.473633,295.490265 434.898682,293.021118 437.166321,292.825867 
	C440.778198,292.514923 440.856750,289.638031 443.135345,287.644257 
	C439.720825,287.524414 438.227417,289.543304 435.814026,291.172089 
M442.803314,282.634979 
	C442.352661,282.676910 441.902008,282.718872 441.451324,282.760803 
	C441.479767,282.915649 441.454956,283.158844 441.544281,283.212708 
	C446.630798,286.279266 451.726746,289.330078 456.821808,292.382446 
	C457.030762,292.027802 457.239716,291.673187 457.448669,291.318542 
	C453.280334,287.677612 448.034485,285.705261 442.803314,282.634979 
M443.325012,272.747192 
	C440.902130,273.738220 440.554840,275.836060 441.801758,277.532379 
	C443.212952,279.452148 445.233185,278.895386 446.874695,277.159607 
	C446.585052,275.211212 445.567413,273.828644 443.325012,272.747192 
M804.400269,237.232422 
	C806.587830,234.626587 804.086548,234.026093 801.815369,231.918594 
	C803.101013,236.128784 800.049683,237.755905 798.926025,240.521912 
	C801.471436,240.348328 802.465454,238.621124 804.400269,237.232422 
M376.955139,334.511688 
	C374.346832,339.229431 378.442749,337.924530 380.717651,338.327637 
	C378.619049,337.673004 381.472595,333.489655 376.955139,334.511688 
z"/>
<path fill="#000000" opacity="1.000000" stroke="none" 
	d="
M478.458496,601.520508 
	C470.996368,598.200073 464.903595,593.357849 458.325165,589.306091 
	C453.156433,586.122559 452.143585,582.073730 452.626129,576.800598 
	C452.740784,575.547729 453.885956,574.367798 452.937927,572.955322 
	C450.861816,573.473328 451.307373,576.225952 449.437134,576.855103 
	C447.453735,573.121704 448.483826,570.300476 453.433228,565.896973 
	C463.329407,575.826050 476.617126,580.538391 487.956482,588.259583 
	C491.629425,590.760559 496.513977,588.932129 500.587189,590.603333 
	C501.649750,591.039307 503.362488,590.804932 503.874725,591.522400 
	C507.742462,596.939331 512.414062,593.424377 516.490540,592.471191 
	C520.827332,591.457092 523.278259,582.975952 519.733826,580.433472 
	C515.635498,577.493652 513.634277,572.815674 509.447601,570.220398 
	C505.624786,567.850586 501.822113,565.448059 498.023926,563.038879 
	C496.758881,562.236450 495.450836,561.469116 494.310516,560.509766 
	C492.089417,558.641235 491.764099,556.922791 495.079132,555.958496 
	C502.224121,553.880249 505.055939,547.640869 508.522095,542.031494 
	C508.934021,541.364929 509.373230,540.129150 509.057800,539.689087 
	C505.669678,534.962524 509.201843,530.588379 509.600830,526.022949 
	C507.942169,525.926086 507.791412,528.513672 505.979187,528.097595 
	C505.018280,523.364014 507.379425,519.612915 513.343323,516.724976 
	C514.714233,521.184204 518.036072,521.108887 522.141541,521.476074 
	C528.182556,522.016296 534.005005,524.266113 540.336182,523.505249 
	C542.982483,523.187134 545.546082,522.513428 548.177979,522.266785 
	C549.916443,522.103943 551.807861,521.508179 553.247009,523.072815 
	C553.297302,524.168640 552.530396,524.105957 551.899780,524.217773 
	C548.875671,524.754089 544.980774,524.293884 544.311646,528.398438 
	C543.603821,532.739563 543.955566,537.147095 547.987854,540.151001 
	C549.855225,541.542175 551.862610,542.743591 553.769104,544.084290 
	C563.705261,551.071777 568.512573,550.919800 577.845459,543.345581 
	C582.889282,539.252258 588.003479,535.245056 593.014282,531.112122 
	C595.565613,529.007690 598.329346,527.037842 599.277039,523.644287 
	C606.013000,525.793884 609.563232,532.205811 607.170471,537.531677 
	C605.075745,537.506409 606.067200,534.332153 603.379883,534.356750 
	C604.216309,537.623779 600.191040,540.592407 603.238586,544.123840 
	C603.412537,544.325439 602.926392,545.457764 602.476929,545.782959 
	C593.221375,552.480042 585.779419,561.621887 574.986328,566.241211 
	C571.562256,567.706665 567.679260,568.782654 564.296814,567.951721 
	C558.623779,566.557861 554.251892,567.869446 550.165283,571.858459 
	C549.692993,573.417786 551.254883,574.347473 551.818359,575.660400 
	C553.917297,580.551575 553.667603,585.000488 549.767700,589.007446 
	C541.722717,597.273193 532.809448,604.541748 523.300354,610.973633 
	C517.017883,615.223083 509.749207,614.970215 502.180176,614.749451 
	C491.608643,614.440979 486.029510,606.960754 478.458496,601.520508 
z"/>
<path fill="#000000" opacity="1.000000" stroke="none" 
	d="
M477.899414,634.390442 
	C484.944733,635.844666 485.630981,635.346375 488.816803,626.588440 
	C492.561432,628.893677 490.961639,632.297974 490.919067,635.284851 
	C494.438995,631.483276 494.542755,629.695374 491.392151,625.878723 
	C488.937408,622.905029 485.335052,620.503723 486.530304,615.217651 
	C491.529449,616.667542 494.026184,620.424377 495.816742,624.616577 
	C497.629822,628.861511 496.523315,632.966370 493.383698,636.144287 
	C488.947937,640.634155 484.325256,644.969421 479.509583,649.048645 
	C457.043640,668.079041 434.469604,686.981812 411.963989,705.965515 
	C401.636810,714.676636 388.358429,715.658630 376.919342,708.396729 
	C366.386047,701.709778 355.881592,694.977295 345.362396,688.268066 
	C336.242157,682.451050 335.341675,680.358948 337.606049,669.351990 
	C334.567688,671.303833 335.020294,674.315186 334.200623,676.709106 
	C330.489075,673.025513 332.089386,666.872070 338.241180,662.351624 
	C339.278534,666.124512 341.491150,668.963806 344.169739,671.668030 
	C350.182129,677.738037 359.077942,678.453125 365.516602,683.758606 
	C369.726746,687.227722 374.550781,689.953796 379.114471,692.990723 
	C380.888489,694.171204 380.610870,696.191284 381.265259,697.844055 
	C382.734344,701.554199 384.152374,705.483276 389.021454,705.949280 
	C394.108978,706.436340 398.485168,703.874390 400.579529,699.137329 
	C398.271851,697.449219 396.189453,699.516235 394.055786,699.562439 
	C395.045898,695.360962 398.508545,693.439514 401.582397,690.960632 
	C415.037506,680.110107 427.531342,668.098816 441.489136,657.846436 
	C450.598816,651.155212 459.006775,643.611816 467.682770,636.391357 
	C470.285736,634.225098 473.341797,630.425293 477.899414,634.390442 
z"/>
<path fill="#000000" opacity="1.000000" stroke="none" 
	d="
M436.975464,494.085388 
	C429.547241,489.883789 429.882416,483.208984 430.584747,476.646698 
	C429.385315,474.767029 428.010559,477.263275 426.635864,475.902710 
	C426.413452,473.670776 427.978210,472.301788 429.672455,470.975159 
	C443.554871,482.120422 459.822601,489.205627 474.476532,498.891632 
	C481.415039,503.477875 486.796997,502.787262 493.072235,497.352142 
	C497.599945,493.430573 502.146759,489.525146 506.809998,485.767578 
	C510.963074,482.421051 515.144043,479.151062 517.420410,474.214630 
	C524.346924,476.188812 527.991516,481.749603 526.114075,487.220703 
	C523.906738,487.206635 524.412109,483.979034 522.036926,483.918915 
	C521.353333,486.820770 520.088135,489.766357 520.098816,492.707306 
	C520.115417,497.259735 517.429016,499.468262 514.275818,501.806213 
	C509.864105,505.077301 505.726410,508.716492 501.334961,512.016541 
	C491.090302,519.715027 479.413330,519.973694 468.171875,513.614685 
	C457.577362,507.621643 447.864227,500.269257 436.975464,494.085388 
z"/>
<path fill="#000000" opacity="1.000000" stroke="none" 
	d="
M398.628174,468.793915 
	C390.329834,466.679840 383.886139,461.747650 376.890289,457.953827 
	C369.876526,454.150299 363.002075,450.068970 356.228210,445.849884 
	C349.517059,441.669922 345.350494,435.817200 345.627899,427.160675 
	C348.272522,426.914459 350.143402,424.929321 351.556091,424.037506 
	C366.938843,434.075043 381.763275,444.018341 397.310364,452.790100 
	C402.219849,455.560089 407.359192,454.107086 411.741028,450.559723 
	C418.339050,445.218079 424.844238,439.755890 431.571686,434.582672 
	C434.448151,432.370758 436.070923,429.398285 437.751434,426.214447 
	C443.284668,427.541992 445.983337,431.038757 447.008148,436.159912 
	C445.032684,437.757599 444.039093,434.680328 441.914978,435.792603 
	C441.476990,438.067200 440.342194,440.781464 440.589203,443.363556 
	C441.051208,448.193085 438.339355,450.556732 434.965546,452.978546 
	C429.023499,457.243835 423.459320,462.068909 417.330139,466.030182 
	C411.839203,469.578949 405.492157,470.229858 398.628174,468.793915 
z"/>
<path fill="#000000" opacity="1.000000" stroke="none" 
	d="
M459.970398,522.974854 
	C465.831116,528.639160 464.758911,534.715881 462.047607,541.614929 
	C460.926270,544.468201 459.564453,546.367920 457.410278,548.128784 
	C453.930511,550.973145 450.438080,553.805298 447.039032,556.744385 
	C436.216278,566.102661 424.035278,567.123779 411.680481,559.651367 
	C400.859894,553.106873 390.025604,546.584961 379.213318,540.026855 
	C372.925140,536.212830 372.131470,534.394287 373.363098,526.978394 
	C373.576447,525.693848 374.061493,524.403381 373.173676,523.180481 
	C371.464386,522.622192 371.199371,525.572571 369.398743,524.695557 
	C369.687561,520.527588 370.091553,519.809448 374.233612,516.436951 
	C376.715942,523.174011 383.446655,524.457947 388.619659,527.785583 
	C397.998016,533.818481 407.493378,539.670044 416.853638,545.730469 
	C422.807037,549.585144 428.445831,549.329285 433.892059,544.929871 
	C442.564789,537.924072 451.426178,531.138977 459.731995,523.190247 
	C460.000916,523.002869 459.970398,522.974854 459.970398,522.974854 
z"/>
<path fill="#000000" opacity="1.000000" stroke="none" 
	d="
M488.437134,463.054230 
	C481.301361,459.113129 476.242371,459.198456 471.586517,463.154694 
	C466.434631,467.532440 467.327301,472.774689 473.645630,475.377960 
	C474.819977,475.861847 476.348969,475.660645 477.251892,477.404419 
	C474.864746,480.711304 471.539856,479.883026 468.597137,478.755188 
	C465.155304,477.436066 464.339783,473.480316 464.853638,470.883667 
	C465.938324,465.402344 469.283600,460.610168 474.819275,458.760254 
	C480.379059,456.902344 485.991180,457.615509 490.596649,461.886475 
	C491.035461,462.293427 491.239868,462.953156 491.534088,463.462616 
	C490.300385,464.612579 489.560577,463.583801 488.437134,463.054230 
z"/>
<path fill="#000000" opacity="1.000000" stroke="none" 
	d="
M293.191803,522.939453 
	C291.749390,523.647461 290.509888,524.096069 289.317444,524.646545 
	C287.300232,525.577820 285.959808,528.588013 283.406403,527.549255 
	C279.848114,526.101624 276.421692,524.168457 273.144501,520.196289 
	C280.672913,519.658691 287.189453,519.311646 293.551605,521.830566 
	C293.614655,521.855530 293.465820,522.415649 293.191803,522.939453 
z"/>
<path fill="#000000" opacity="1.000000" stroke="none" 
	d="
M474.454590,470.362732 
	C473.442596,465.627106 476.700073,464.730865 479.761627,464.143463 
	C483.166931,463.490112 484.539703,466.549225 486.182098,468.660828 
	C487.034271,469.756500 485.973297,471.036194 484.834930,471.317322 
	C481.413818,472.162170 477.861511,473.795532 474.454590,470.362732 
z"/>
<path fill="#000000" opacity="1.000000" stroke="none" 
	d="
M506.235168,576.786621 
	C499.824127,572.480408 493.152374,569.058289 488.595306,562.844604 
	C496.421051,566.845276 504.359436,570.663269 511.188232,576.764709 
	C509.258728,578.260864 507.937225,576.963074 506.235168,576.786621 
z"/>
<path fill="#000000" opacity="1.000000" stroke="none" 
	d="
M423.215698,509.998474 
	C427.463409,510.195526 431.072357,510.842804 430.920837,515.887634 
	C430.861237,517.872437 429.466705,519.425598 427.727356,517.856750 
	C424.808594,515.223999 421.302673,514.225159 417.395020,513.273193 
	C418.545807,510.447601 420.974701,510.742615 423.215698,509.998474 
z"/>
<path fill="#000000" opacity="1.000000" stroke="none" 
	d="
M351.698975,464.056122 
	C354.270691,466.366272 353.274750,467.925568 350.938995,469.496552 
	C348.237152,467.858978 346.005127,465.256470 341.789032,465.002533 
	C345.270660,460.312714 348.331085,461.856934 351.698975,464.056122 
z"/>
<path fill="#000000" opacity="1.000000" stroke="none" 
	d="
M399.824036,421.287964 
	C399.141388,418.602997 400.483337,417.509552 402.545319,417.433502 
	C404.406647,417.364807 406.190247,418.215149 407.140350,419.862610 
	C408.163239,421.636230 406.853516,422.658020 405.328491,423.122620 
	C403.288818,423.744019 401.426422,423.292511 399.824036,421.287964 
z"/>
<path fill="#000000" opacity="1.000000" stroke="none" 
	d="
M381.011047,474.012207 
	C381.263428,471.789795 382.466827,471.102173 384.434845,472.114075 
	C388.484222,474.196289 391.234131,477.179352 391.128204,483.386169 
	C388.194366,479.025940 385.825592,475.543610 381.306335,474.065796 
	C380.968658,473.962250 380.996796,473.995728 381.011047,474.012207 
z"/>
<path fill="#000000" opacity="1.000000" stroke="none" 
	d="
M460.015625,523.017578 
	C459.957245,519.501648 461.136597,518.116333 464.297028,520.716980 
	C467.146515,523.061768 470.478271,525.170471 470.180481,530.401917 
	C467.210388,526.960693 465.303986,522.959900 460.273407,522.951843 
	C459.970398,522.974854 460.000916,523.002869 460.015625,523.017578 
z"/>
<path fill="#000000" opacity="1.000000" stroke="none" 
	d="
M376.743408,553.207397 
	C378.055298,554.644653 379.351288,555.720032 379.448059,558.275940 
	C376.344757,555.877014 373.643372,553.788757 370.391083,551.274658 
	C373.527863,550.045471 374.851746,552.039856 376.743408,553.207397 
z"/>
<path fill="#000000" opacity="1.000000" stroke="none" 
	d="
M138.781921,515.872131 
	C142.353302,511.383392 146.385117,507.981934 151.338806,505.829163 
	C154.231064,504.572205 157.419861,504.137054 159.469131,507.063354 
	C161.711594,510.265472 158.801666,512.212280 156.836807,514.114136 
	C153.490417,517.353149 149.926529,520.371887 145.366013,521.756897 
	C141.222092,523.015442 138.789383,520.928223 138.781921,515.872131 
z"/>
<path fill="#000000" opacity="1.000000" stroke="none" 
	d="
M524.383667,419.097290 
	C525.018738,418.147888 525.485962,417.429810 526.129089,416.945160 
	C528.126648,415.439941 530.336426,413.547180 532.799561,415.511353 
	C534.747375,417.064636 532.916016,418.627838 531.670471,419.519958 
	C529.306030,421.213440 526.694580,423.356934 524.383667,419.097290 
z"/>
</svg>